<?xml version="1.0" encoding="UTF-8"?>
<!DOCTYPE svg PUBLIC "-//W3C//DTD SVG 1.1//EN" "http://www.w3.org/Graphics/SVG/1.1/DTD/svg11.dtd">
<!-- Creator: CorelDRAW X8 -->
<svg xmlns="http://www.w3.org/2000/svg" xml:space="preserve" width="973px" height="1068px" version="1.1" style="shape-rendering:geometricPrecision; text-rendering:geometricPrecision; image-rendering:optimizeQuality; fill-rule:evenodd; clip-rule:evenodd"
viewBox="0 0 740 812"
 xmlns:xlink="http://www.w3.org/1999/xlink">
 <defs>
  <style type="text/css">
   <![CDATA[
    .fil0 {fill:url(#id0);fill-rule:nonzero}
   ]]>
  </style>
  <linearGradient id="id0" gradientUnits="userSpaceOnUse" x1="369.905" y1="812.238" x2="369.906" y2="0">
   <stop offset="0" style="stop-opacity:1; stop-color:#FF8800"/>
   <stop offset="1" style="stop-opacity:1; stop-color:#FFBE00"/>
  </linearGradient>
 </defs>
 <g id="Layer_x0020_1">
  <metadata id="CorelCorpID_0Corel-Layer"/>
  <path class="fil0" d="M326 0c-50,5 -97,19 -140,42 -54,30 -97,69 -127,117 -21,34 -36,72 -45,113 -9,42 -14,96 -14,164l0 187 130 0 0 -99 -45 0 0 -92c0,-47 4,-89 11,-124 7,-35 20,-67 38,-97 24,-37 55,-64 93,-83 28,-13 61,-21 99,-25l-124 357 35 0 0 138 -57 0 0 214 380 0 0 -219 -58 0 0 -128 37 0 -127 -362 0 -103c54,5 102,18 143,40 53,29 95,68 126,118 18,30 33,66 43,108 11,43 16,100 16,172l0 185 -130 0 0 -99 44 0 0 -92c0,-46 -3,-85 -9,-118 -7,-32 -18,-63 -35,-92 -22,-40 -54,-71 -93,-91 -30,-15 -65,-24 -105,-28l0 0 -43 0 -43 0 1 0 -1 0 0 -103z"/>
 </g>
</svg>
